<?xml version="1.0" encoding="UTF-8"?>
<svg id="Layer_2" data-name="Layer 2" xmlns="http://www.w3.org/2000/svg" viewBox="0 0 2325.26 1106.32">
  <defs>
    <style>
      .cls-1 {
        fill: none;
      }

      .cls-2 {
        fill: #3b717f;
      }

      .cls-3 {
        fill: #0c0a09;
      }

      .cls-4 {
        fill: #936d56;
      }

      .cls-5 {
        fill: #eacb49;
      }

      .cls-6 {
        fill: #f2d970;
      }

      .cls-7 {
        fill: #7e5743;
      }

      .cls-8 {
        fill: #3a2519;
      }

      .cls-9 {
        fill: #7f5843;
      }

      .cls-10 {
        fill: #7e5843;
      }

      .cls-11 {
        fill: #dd8583;
      }

      .cls-12 {
        fill: #fff1b6;
      }

      .cls-13 {
        fill: #5b94a8;
      }

      .cls-14 {
        fill: #7d5742;
      }

      .cls-15 {
        fill: #f8ada8;
      }

      .cls-16 {
        fill: #fefefc;
      }
    </style>
  </defs>
  <g id="Loading">
    <g id="Loading-2" data-name="Loading">
      <path class="cls-12" d="M2282.12,871.99c-25.93-25.93-60.4-40.2-97.06-40.2H334.16c-36.67,0-71.14,14.28-97.06,40.2-25.93,25.93-40.2,60.4-40.2,97.06s14.28,71.14,40.2,97.06c25.93,25.93,60.4,40.2,97.06,40.2h1850.89c36.67,0,71.14-14.28,97.06-40.2,25.93-25.93,40.2-60.4,40.2-97.06s-14.28-71.14-40.2-97.06Z"/>
      <path class="cls-12" d="M2017.42,831.78c-.04.09-.09.18-.13.28.59-.09,1.2-.17,1.81-.28h-1.68ZM1747.21,831.78h-.05c.17.4.35.78.53,1.15-.16-.38-.32-.77-.47-1.15ZM1560.28,831.78c22.5,19.5,50.55,21.55,87.09.21.13-.06.26-.13.39-.21h-87.48ZM1217.78,831.78c5.08,21.4,13.5,42.76,26.03,63.91,3.24,2.98,6.43,5.53,9.59,7.67-.05.02-.11.05-.16.09,4.82,3.21,11.42,6.63,19.55,8.68,7.28,1.83,14.95,1.34,23.12-.77.1-.02.19-.05.3-.08,19.78-4.55,40.62-18.04,65.56-31.1.12-.06.23-.12.35-.17,20.29-10.28,43.18-20.3,69.4-25.65.21-.04.41-.08.62-.12,12.7-1.79,24.41-5.22,35.32-10.31,7.4-3.11,14.97-7.09,21.69-12.15h-271.37Z"/>
      <path class="cls-6" d="M2185.06,866.32H735.61v205.47h1449.45c56.74,0,102.73-46,102.73-102.73s-46-102.73-102.73-102.73Z"/>
      <path class="cls-2" d="M334.16,866.32c-56.74,0-102.73,46-102.73,102.73s46,102.73,102.73,102.73h401.45v-205.47h-401.45Z"/>
      <g>
        <path class="cls-2" d="M1025.31,983.53h-33.89l-.58-81.5c-.04-5.64-4.62-10.18-10.25-10.18h-.07c-5.66.04-10.22,4.66-10.18,10.33l.6,83.68c.07,10.02,8.43,18.17,18.62,18.17h35.75c5.66,0,10.25-4.59,10.25-10.25s-4.59-10.25-10.25-10.25Z"/>
        <path class="cls-2" d="M1076.97,927.3c-7.03.29-13.91,3.81-19.38,9.9-7.37,8.22-11.48,20.16-10.74,31.16,1.17,17.28,14.2,35.67,31.76,35.67h.2c17.01-.14,29.47-17.33,31.25-33.18,1.33-11.78-3.04-24.68-11.39-33.65-6.25-6.71-13.96-10.2-21.7-9.91ZM1089.69,968.56c-.76,6.7-6,14.93-11.04,14.97h-.04c-4.96,0-10.76-8.49-11.31-16.55-.37-5.51,1.86-11.97,5.55-16.09,1.69-1.88,3.54-3.04,4.96-3.1,1.58-.07,3.84,1.24,5.86,3.4,4.19,4.5,6.67,11.65,6.02,17.38Z"/>
        <path class="cls-2" d="M1180.31,967.5c-1.63-20.41-2.92-36.54-17.84-43.78-5.66-2.75-15.51-5.08-30.31-.59-5.42,1.65-8.48,7.37-6.83,12.79,1.64,5.42,7.37,8.47,12.79,6.83,9.48-2.88,14.18-1.18,15.39-.59,1.82.88,3.03,3.21,3.91,6.83-12.53-.23-23.98,4.45-30.46,13.01-6.96,9.2-8.34,23.84,1.4,32.42,4.81,4.23,11.49,6.29,18.72,6.29,4.55,0,9.32-.82,13.97-2.43,1.55,3.16,4.69,5.45,8.45,5.72.25.02.51.03.76.03,5.32,0,9.82-4.11,10.21-9.51.63-8.62.6-17.38-.1-26.05l-.08-.98ZM1141.98,979.11c-.26-.52-.11-2.83,1.34-4.74,2.46-3.25,9-5.55,16.6-4.68l.03.42c.16,1.95.27,3.9.35,5.86-8.16,5.45-16.7,4.54-18.32,3.13Z"/>
        <path class="cls-2" d="M1247.29,891.2c-5.66,0-10.25,4.59-10.25,10.25v36.23c-14.49-1.83-28.44,5.14-35.28,18.52-5.65,11.06-7.12,27.78,1,38.36,4.49,5.85,11.61,9.3,19.55,9.47.21,0,.42,0,.64,0,5.42,0,10.89-1.49,16.03-4.27,1.86,2.58,4.89,4.27,8.32,4.27,5.66,0,10.25-4.59,10.25-10.25v-92.33c0-5.66-4.59-10.25-10.25-10.25ZM1237.04,975.03c-.17.18-.34.35-.5.54-4.25,5.08-9.39,8.01-13.79,7.96-1.69-.04-3.05-.57-3.73-1.45-2.02-2.63-1.95-10.78,1-16.55,3.24-6.34,9.94-9.02,17.02-6.98v16.48Z"/>
        <path class="cls-2" d="M1288.3,945.43c-5.66,0-10.25,4.59-10.25,10.25v38.1c0,5.66,4.59,10.25,10.25,10.25s10.25-4.59,10.25-10.25v-38.1c0-5.66-4.59-10.25-10.25-10.25Z"/>
        <path class="cls-2" d="M1288.3,908.99c-5.66,0-10.25,4.59-10.25,10.25v3.13c0,5.66,4.59,10.25,10.25,10.25s10.25-4.59,10.25-10.25v-3.13c0-5.66-4.59-10.25-10.25-10.25Z"/>
        <path class="cls-2" d="M1497.36,981.71c-5.66,0-10.25,4.59-10.25,10.25v3.13c0,5.66,4.59,10.25,10.25,10.25s10.25-4.59,10.25-10.25v-3.13c0-5.66-4.59-10.25-10.25-10.25Z"/>
        <path class="cls-2" d="M1539.58,981.71c-5.66,0-10.25,4.59-10.25,10.25v3.13c0,5.66,4.59,10.25,10.25,10.25s10.25-4.59,10.25-10.25v-3.13c0-5.66-4.59-10.25-10.25-10.25Z"/>
        <path class="cls-2" d="M1581.81,981.71c-5.66,0-10.25,4.59-10.25,10.25v3.13c0,5.66,4.59,10.25,10.25,10.25s10.25-4.59,10.25-10.25v-3.13c0-5.66-4.59-10.25-10.25-10.25Z"/>
        <path class="cls-2" d="M1363.2,935.09c-5.99-2.46-13.71-2.34-15.95-2.25-3.64.15-7,.73-10.05,1.56v-3.52c0-5.66-4.59-10.25-10.25-10.25s-10.25,4.59-10.25,10.25v62.91c0,5.66,4.59,10.25,10.25,10.25s10.25-4.59,10.25-10.25v-37.5c2.8-1.46,6.49-2.78,10.9-2.96,3.26-.14,6.35.34,7.31.74,2.94,1.21,8.49,14.5,3.57,37.3-1.19,5.54,2.32,10.99,7.86,12.18.73.16,1.46.23,2.17.23,4.72,0,8.97-3.29,10.01-8.09,6.42-29.73.05-54.08-15.83-60.6Z"/>
        <path class="cls-2" d="M1447.22,930.57c-2.2.28-4.14,1.23-5.66,2.63-17.73-2.29-34.65,4.88-43.27,19.09-7.25,11.96-9.3,30.88,1.19,42.39,5.31,5.82,13.27,9.14,22.42,9.35.3,0,.59,0,.88,0,6.48,0,13.05-1.57,19.28-4.48-.03,3.17-.11,6.25-.25,9.21-.14,2.99-.37,8-3.57,11.7-3.58,4.14-11.05,7.39-17.85,5.26-5.21-1.63-8.07-5.77-9.05-7.47-2.84-4.9-9.11-6.57-14.01-3.74-4.9,2.84-6.57,9.11-3.74,14.01,2.72,4.69,9.01,13.11,20.67,16.77,3.58,1.12,7.14,1.62,10.6,1.62,12.02,0,22.83-6.03,28.89-13.03,7.85-9.07,8.34-19.65,8.55-24.17.91-19.68-.35-43.96-3.64-70.23-.71-5.62-5.83-9.6-11.45-8.9ZM1422.35,983.52c-3.38-.07-6.27-1.07-7.71-2.65-2.99-3.29-2.41-12.01,1.19-17.95,4.37-7.21,13.87-10.71,23.82-9.25.79,7.6,1.39,14.96,1.8,22.01-5.89,5.15-12.68,7.99-19.1,7.84Z"/>
      </g>
    </g>
    <g id="Girl">
      <g id="Hair">
        <path class="cls-8" d="M1751.41,787.73c7.2,13.18,19.58,30.26,31.9,44.05h-36.1c-3.19-8-4.65-17.61-3.17-26.77.99-6.18,3.32-12.16,7.37-17.28Z"/>
        <path class="cls-8" d="M1969.85,435.28c-7.55,4.05-15.85,9.52-23.94,17-1.81,1.67-3.51,3.35-5.09,5.02-2.45-2.05-5.02-3.9-7.68-5.5-13.4,8.48-26.81,16.98-40.21,25.46-4.68-1.3-8.49-1.19-10.84-.93-5.85.65-10.66,3.12-13.3,4.48-.42.22-.76.39-.96.51-4.32,2.32-7.93,5.03-9.99,7.27-9.41,7.83-22.44,17.48-41.68,29.35-9.89-7.33-20.61-16.11-31.62-26.56-11.17-10.6-20.62-21-28.54-30.62-2.45-16.58-3.49-23.62-3.54-23.97,0-.02-.03-.23-.08-.52-.04-.3-.08-.5-.09-.58,7.55,4.87,24.24,14.09,46.65,14.23,28.8.17,48.84-14.77,56.79-20.88,31.05-23.85,39.79-58.38,49.35-96.42,4.36-17.32,8.95-41.59,9.81-71.38.14-4.38.18-8.89.14-13.5-.03-3.23-.11-6.51-.24-9.84-7.27-.59-17.19-2.64-24.93-9.84-12.72-11.84-8.34-27.12-21.23-35.18-9.03-5.64-20.12-3.71-25.07-2.85-10.73,1.87-18.31,7.24-22.6,10.65-32.34,25.7-44.25,72.28-74.45,83.44-9.14,3.37-23.68,4.89-46.08-5.95-.21,1.3-2.47,16.99,7.68,24.96,1.52,1.2,3.8,2.59,7.04,3.45-4.82,10.57-12.66,24.58-25.24,38.71-7.82,8.78-15.93,15.84-23.58,21.49-26.17.45-49.67,12.43-73.02,18.71-.02.01-.04.01-.06.02-2.42.65-4.83,1.24-7.25,1.75-32.44,8.61-58.01,8.13-88.72,14.66-26.69,8.85-47.51,28.37-62.97,50.23,2.48-13.85,7.44-28.88,16.45-43.8,18.67-30.91,45.24-45.52,56.89-51.06-.08-3.33.11-8.13,1.44-13.68,1.24-5.21,5.01-18.82,17.17-28.31,10.39-8.12,24.49-10.53,42.76-9.97-1.96-6.43-6.01-22.78,2.72-34.58,2.59-3.5,5.73-5.55,11.92-9.51,17.99-11.51,25.56-10.22,32.93-16.87,9.4-8.46,4.1-16.85,10.34-35.45,8.29-24.73,30.35-47.82,56.87-54.71,11.74-3.05,22.05-2.34,28.6-1.35-.66-4.56-1.51-15.12,4.88-23.72,2.47-3.33,7.01-7.68,16.3-10.47,27.39-8.19,67.11,6,110,8.57,41.27,2.47,53.02-7.77,78.24,4.76,7.26,3.6,26.15,12.98,33.29,33.82,9.99,29.12-11.39,56.09-13.32,58.46,4.65,2.7,14.26,9.22,18.58,21.02,2.47,6.74,2.72,13.85.66,24-7.23,35.65-30.08,45.7-25.23,60.7,3.89,12.04,19.58,8.6,26.13,24.57,4.24,10.34,1.61,21.39-1.12,32.82-2.61,10.95-6.66,19.45-9.79,25.03,1.64,1.47,3.29,3.05,4.95,4.76,5.96,6.15,10.47,12.41,13.88,18.1Z"/>
        <path class="cls-8" d="M2021.34,679.36c-42.38,15.01-71.33,44.45-129.34,41.37-2.6-3.95-12.96-19.74-19.35-29.46-.18-.27-.36-.53-.52-.79l-1.11-1.68-.67-1.03-1.87-2.84-.37-.56-.15-.24c44.85-33.95,68.86-50.04,72.41-65.84,1.81-13.44.62-21.68,1.15-34.18.13-3.08.37-6.42.78-10.17,3.85-3.05,7.71-6.1,11.56-9.14,6.64,6.05,10.47,13.19,10.62,20.36.06,3.02-.49,7.76-4,13.49,17.29,2.15,31.47,14.32,35.65,30.47,5.54,21.4-9.6,37.83-10.53,38.81,18.04.8,28.98,6.16,35.74,11.43Z"/>
      </g>
      <g id="Flower">
        <path class="cls-6" d="M1743.85,224.3c16.67,18.77,50.74,5.2,23.55-15.41-1.86-5.86,26.16-5.12,19.68-19.62-5.72-12.81-26.1-14.54-38.26-12.48,3.94-48.09-41.61-42.03-27.89,3.91-28.76-12.74-46.51,25.89-10.54,28.42-20.72,37.75,19.51,56.45,33.45,15.17ZM1717.67,199.06c1.2-11.97,21.37-18.6,29.85-13.01,30.22,19.89-31.59,30.4-29.85,13.01Z"/>
        <path class="cls-16" d="M1747.52,186.04c-8.48-5.58-28.65,1.04-29.85,13.01-1.74,17.38,60.07,6.88,29.85-13.01Z"/>
      </g>
      <g id="Cloth">
        <g id="T-shirt">
          <g>
            <path class="cls-6" d="M1560.18,831.7c-24.99.17-49.73.36-72.79.54.22-.15.42-.3.64-.45.47-.35.95-.7,1.42-1.06,5.07-3.8,9.96-8.02,14.71-12.68.06-.08.14-.15.22-.22,8.69-8.57,16.88-18.61,24.72-30.1,9.13,18.83,19.35,33.77,31.08,43.97Z"/>
            <path class="cls-6" d="M1722.63,580.27c-.29,3.96-.76,7.68-1.44,11.05l-88.26,63.75c3.92-7.11,7.87-16.31,11.51-26.68,9.53-27.07,17.07-62.15,17.07-89.13,0-1.65-.03-3.28-.09-4.88,2.5-3.8,5.05-7.96,7.57-12.35,6.82,15.02,15.19,23.68,22.59,23.64,8.05-.03,17.06-10.4,24.12-27.62,1.05,3.46,2.01,7.28,2.87,11.35v.02c2.5,11.78,4.15,25.59,4.36,38.34v.32c.05,4.21-.04,8.3-.31,12.16Z"/>
          </g>
          <path class="cls-5" d="M1722.63,580.27c-.29,3.96-.76,7.68-1.44,11.05l-88.26,63.75c3.92-7.11,7.87-16.31,11.51-26.68,11.54-5.65,23.74-12.22,36.39-19.84,15.66-9.43,29.57-19.04,41.79-28.29Z"/>
        </g>
        <g id="Shorts">
          <path class="cls-13" d="M1217.67,831.31c-42.76.29-85.5.58-128.25.87-67.58,12.72-141.86,23.6-222.13,30.82-84.33,7.59-163.09,10.04-235.16,9.22-3.93-.04-7.85-.1-11.74-.16-7.31-.12-14.55-.27-21.71-.45-2.19-8.46-3.9-17.97-4.6-28.4-2.9-43.49,13.45-78.12,24.2-96.48,9.36-5.58,18.8-11.73,28.24-18.55,1.38-1,2.75-2.01,4.13-3.03,4.25-3.16,8.4-6.37,12.43-9.65,39.09-31.59,68.13-67.79,89.77-102.81,2.21-3.58,4.35-7.15,6.41-10.71,12.3-21.21,21.95-41.74,29.53-60.29,57.79,2.46,115.58,4.91,173.37,7.37,26.41-13,69.83-30.04,125.6-33.23,5.91-.33,11.71-.51,17.36-.52,6.73-.03,13.28.16,19.61.53,48.69,2.77,84.89,15.8,99.68,21.86,2.15.87,3.84,1.61,5.06,2.14,4.5,1.97,8.72,3.96,12.64,5.9,8.97,4.45,16.36,8.71,21.97,12.13,4.86.16,9.7.32,14.56.47-25.31,51.76-51.19,107.98-61.93,165.69-6.58,35.43-7.48,71.42.97,107.28Z"/>
          <path class="cls-12" d="M1159.47,614.47c-4.34-6.38-14.54-5.72-15.9-5.61-.17-1.33-.79-4.59-3.44-7.25-3.22-3.24-7.33-3.49-9.26-3.59-9.67-.59-16.68,7.69-17.72,8.96-10.84-1.86-20.08.08-23.23,5.58-.31.55-1.52,2.67-1.03,5.12.9,4.38,6.82,7.78,15,8.21-5.23,3.08-7.75,7.99-6.6,11.66,1.18,3.72,5.78,5.04,6.81,5.33,9.86,2.81,19.53-7.61,20.3-8.45,1.19,1.73,4.79,6.49,11.22,8.27.56.15,11.83,3.13,15.34-2.82,2.36-4.03.51-11-5.55-15.44,8.68-.09,14.72-2.54,15.37-5.94.31-1.64-.7-3.13-1.31-4.01ZM1137.88,620.25c-1.44,4.69-9.53,6.39-15.25,5.34-1.66-.31-6-1.11-7.8-4.59-.3-.59-.9-1.75-.72-3.11.54-4.09,7.64-6.93,13.4-6.67,1.2.05,7.93.35,9.98,4.83.16.36.99,2.18.39,4.19Z"/>
          <g>
            <g>
              <path class="cls-1" d="M1109.03,591.06c-12.23,4.59-26.74,11.38-41.81,21.63-7.22,4.91-13.57,9.93-19.1,14.78,3.17,5.11,7.09,10.74,11.89,16.58,4.58,5.56,9.14,10.29,13.35,14.25,10.57-.21,21.76-.08,33.5.52,20.23,1.04,38.83,3.3,55.57,6.18,2.92-10.66,5.93-21.4,9.02-32.21,3.81-13.35,7.67-26.53,11.58-39.54-9.01-1.52-18.98-2.74-29.81-3.34-16.53-.93-31.41-.23-44.19,1.15Z"/>
              <path class="cls-1" d="M1173.45,667.23c4.52.61,9.05,1.21,13.57,1.82,5.83-23.94,11.65-47.87,17.48-71.81-4.06-.37-8.12-.74-12.18-1.11-3.09,12.28-6.29,24.69-9.63,37.22-3.04,11.43-6.13,22.73-9.25,33.88Z"/>
              <path class="cls-2" d="M1242.1,545.74c-16.08,1.12-36.09.94-58.59-2.9-33.9-5.77-60.48-17.61-78.4-27.53,6.73-.03,13.28.16,19.61.53,15.94,7.3,36.42,14.58,60.86,18.64,14.15,2.34,27.23,3.21,38.83,3.23,2.15.87,3.84,1.61,5.06,2.14,4.5,1.97,8.72,3.96,12.64,5.9Z"/>
              <path class="cls-2" d="M961.28,610.23c-40.85,4.83-86.96,7.72-137.4,6.6-24.94-.55-48.66-2.03-71.03-4.15,2.21-3.58,4.35-7.15,6.41-10.71,19.55,1.58,40.01,2.69,61.3,3.18,49.34,1.14,94.75-1.21,135.48-5.42,30.91-20.75,46.92-30.37,48.07-28.84,1.17,1.55-13.11,14.67-42.82,39.33Z"/>
              <path class="cls-2" d="M663.08,715.49c-11.95,26.82-23.26,60.75-28.34,100.76-.25,1.96-.49,3.94-.7,5.94-.22,1.99-.42,3.95-.59,5.9-1.47,15.77-1.77,30.54-1.32,44.13-3.93-.04-7.85-.1-11.74-.16-.95-12.83-1.14-26.85-.09-41.85,2.88-40.67,13.99-75.14,26.21-102.04,1.38-1,2.75-2.01,4.13-3.03,4.25-3.16,8.4-6.37,12.43-9.65Z"/>
              <path class="cls-2" d="M1179.04,583.51c-28.6-4-54.12-3.72-75.11-1.86-17.93,7.06-38.36,17.67-58.34,33.92-4.11,3.33-7.94,6.71-11.54,10.09,3.26,7.06,8.06,15.78,15.14,24.88,6.36,8.16,12.84,14.43,18.38,19.1,23.45,0,49.59,1.36,77.85,5.04,17.33,2.26,33.59,5.14,48.69,8.39,7.23-30.75,14.45-61.5,21.68-92.25-11.14-2.88-23.43-5.44-36.76-7.31ZM1162.44,665c-16.75-2.87-35.34-5.14-55.58-6.17-11.73-.6-22.92-.73-33.5-.53-4.22-3.96-8.77-8.69-13.35-14.26-4.81-5.84-8.73-11.47-11.89-16.58,5.53-4.85,11.88-9.87,19.1-14.77,15.07-10.24,29.58-17.04,41.81-21.63,12.78-1.38,27.66-2.08,44.18-1.15,10.84.6,20.81,1.82,29.82,3.35-3.91,13.02-7.77,26.19-11.58,39.54-3.09,10.81-6.1,21.55-9.01,32.2ZM1187.03,669.05c-4.53-.62-9.05-1.22-13.58-1.82,3.12-11.16,6.21-22.45,9.25-33.89,3.33-12.52,6.54-24.93,9.63-37.21,4.06.37,8.12.73,12.17,1.1-5.83,23.94-11.64,47.87-17.47,71.82Z"/>
            </g>
            <g>
              <path class="cls-2" d="M1139.88,773.26l-30.77-.07h-.01c-3.27,0-5.93,2.65-5.94,5.92,0,3.28,2.64,5.94,5.92,5.95l30.77.07h.01c3.27,0,5.93-2.65,5.94-5.92,0-3.28-2.64-5.94-5.92-5.95Z"/>
              <path class="cls-2" d="M895.36,802.85c-10.15,1.08-20.43,2.12-30.55,3.06-3.26.31-5.66,3.2-5.36,6.46.29,3.08,2.87,5.38,5.9,5.38.18,0,.37,0,.56-.03,10.17-.95,20.5-1.99,30.7-3.08,3.26-.35,5.62-3.27,5.27-6.53-.35-3.26-3.27-5.63-6.53-5.27Z"/>
              <path class="cls-2" d="M1017.04,786.65c-10.03,1.6-20.23,3.16-30.33,4.64-3.24.48-5.49,3.49-5.01,6.73.43,2.95,2.97,5.08,5.87,5.08.29,0,.58-.02.87-.06,10.15-1.49,20.41-3.05,30.49-4.66,3.24-.52,5.44-3.56,4.93-6.8-.52-3.24-3.56-5.44-6.8-4.93Z"/>
              <path class="cls-2" d="M956.32,795.54c-10.15,1.35-20.4,2.65-30.44,3.85-3.25.39-5.58,3.35-5.19,6.6.36,3.02,2.92,5.23,5.89,5.23.24,0,.47-.01.71-.04,10.1-1.21,20.39-2.51,30.6-3.87,3.25-.43,5.53-3.42,5.1-6.67-.43-3.25-3.42-5.53-6.67-5.1Z"/>
              <path class="cls-2" d="M1077.52,776.2c-10.05,1.87-20.21,3.69-30.2,5.42-3.23.56-5.4,3.63-4.84,6.86.5,2.89,3.01,4.93,5.84,4.93.34,0,.68-.03,1.02-.09,10.04-1.74,20.26-3.57,30.36-5.45,3.22-.6,5.35-3.7,4.75-6.92-.6-3.22-3.7-5.35-6.92-4.75Z"/>
              <path class="cls-2" d="M1201.42,773.39l-30.77-.07h-.01c-3.27,0-5.93,2.65-5.94,5.92,0,3.28,2.64,5.94,5.92,5.95l30.77.07h.01c3.27,0,5.93-2.65,5.94-5.92,0-3.28-2.64-5.94-5.92-5.95Z"/>
              <path class="cls-2" d="M834.23,808.58c-10.13.82-20.43,1.58-30.61,2.27-3.27.22-5.74,3.05-5.52,6.32.21,3.13,2.82,5.53,5.92,5.53.13,0,.27,0,.41-.01,10.23-.69,20.58-1.46,30.77-2.28,3.27-.26,5.7-3.13,5.44-6.39-.26-3.27-3.13-5.7-6.39-5.44Z"/>
              <path class="cls-2" d="M772.98,812.73c-10.19.56-20.51,1.05-30.67,1.48-3.27.14-5.82,2.9-5.68,6.18.13,3.19,2.76,5.69,5.93,5.69.08,0,.17,0,.25,0,10.21-.43,20.58-.93,30.82-1.49,3.27-.18,5.78-2.98,5.6-6.25-.18-3.27-2.98-5.75-6.25-5.6Z"/>
              <path class="cls-2" d="M711.63,815.29c-10.19.29-20.51.52-30.69.69-3.28.05-5.89,2.75-5.84,6.03.05,3.24,2.7,5.84,5.93,5.84.03,0,.06,0,.1,0,10.23-.16,20.61-.39,30.84-.69,3.28-.09,5.86-2.83,5.76-6.1-.09-3.28-2.82-5.84-6.1-5.76Z"/>
              <path class="cls-2" d="M650.22,816.27h-.02c-5.42.02-10.8.01-16.15,0h-.02c-3.27,0-5.92,2.64-5.93,5.91-.01,3.28,2.63,5.95,5.91,5.96,3.03.01,6.08.02,9.13.02,2.36,0,4.72,0,7.1-.01,3.28,0,5.93-2.67,5.92-5.95,0-3.27-2.67-5.92-5.93-5.92Z"/>
            </g>
            <path class="cls-2" d="M1278.63,558.34c-25.31,51.76-51.19,107.98-61.93,165.69.73-14.1,2.28-28.97,4.91-44.43,9.07-53.38,27.66-94.76,42.47-121.73,4.86.16,9.7.32,14.56.47Z"/>
          </g>
        </g>
        <g id="Shirt">
          <path class="cls-15" d="M2124.07,771.73c-2.81,3.87-4.97,6.15-5.31,6.5-10.58,1-21.15,2.02-31.73,3.03-8.01,30.67-41.87,46.22-67.93,50.53-.62.11-1.22.19-1.81.28.04-.1.09-.19.13-.28h-234.11c-12.32-13.79-24.7-30.88-31.9-44.05-4.05,5.12-6.38,11.09-7.37,17.28-1.48,9.16-.02,18.78,3.17,26.77.15.39.31.78.47,1.15-.18-.38-.36-.76-.53-1.15h-99.4c-.13.08-.26.14-.39.21-36.54,21.35-64.59,19.3-87.09-.21-11.77-10.2-22.03-25.17-31.18-44.05-7.85,11.49-16.04,21.53-24.72,30.1-.08.06-.15.14-.22.22-4.75,4.66-9.64,8.88-14.71,12.68-.47.36-.95.71-1.42,1.06-6.55,4.77-13.39,8.82-20.57,12.15-10.91,5.08-22.62,8.51-35.32,10.31-.2.04-.41.08-.62.12-26.81,5.06-49.43,15.21-69.4,25.65-.12.05-.23.11-.35.17-24.94,13.06-45.78,26.55-65.56,31.1-.11.02-.2.05-.3.08-14.33,3.24-28.11,1.76-42.51-8-3.16-2.15-6.36-4.69-9.59-7.67-12.53-21.15-20.95-42.51-26.03-63.91-22.5-94.6,20.11-190.15,61.1-273.95,28.17-10.49,81.81-6.57,90.63-23.19,1.07-3.26.02-6.62,2.9-9.54,13.48-7.72,19.34,4.99,35.49-22.45,5.82-15.7,14.55-33.79,26.41-50.51,15.46-21.85,36.28-41.38,62.97-50.23,30.71-6.53,56.28-6.04,88.72-14.66,2.42-.51,4.83-1.1,7.25-1.75.02-.01.04-.01.06-.02,23.34-6.28,46.85-18.26,73.02-18.71-1.04,1.74-2.08,3.47-3.12,5.21-.49,29.45,11.97,82.22,25.53,108.31-1.64,4.46-3.54,9.12-5.63,13.82-.42.94-.84,1.89-1.27,2.85-6.03,13.25-13.38,26.74-20.41,37.4.05,1.6.09,3.23.09,4.88,0,37.32-14.43,90.14-28.59,115.81l88.26-63.75c1.34-6.67,1.87-14.71,1.75-23.21v-.32c-.2-12.76-1.86-26.56-4.36-38.34v-.02c-1.68-7.92-3.74-14.93-6.02-20.12-.96-7.79-.05-16.89,2.54-26.04.05-.19.1-.38.16-.57,3.43-11.81,9.63-23.69,18.17-33.02.01-.02.02-.03.03-.04,5.39-5.87,11.7-10.74,18.83-13.93.01.09.04.28.09.58.02.15.04.32.08.52.09.6.2,1.42.37,2.45.03.28.09.58.13.9.12.82.26,1.75.41,2.78.04.28.08.57.13.87.23,1.53.47,3.27.76,5.18.08.49.15.98.23,1.49.31,2.14.66,4.48,1.04,6.99.13.91.27,1.83.41,2.78.02.17.05.35.08.52,8.36,10.32,18.21,20.81,28.54,30.62,7.57,7.18,15.41,13.99,23.15,20.09,2.14,1.71,4.26,3.33,6.38,4.91.7.53,1.4,1.05,2.09,1.55,19.24-11.87,32.27-21.52,41.68-29.35,4.13-4.48,14.42-10.83,24.25-12.26.16-.03.33-.05.5-.06.06-.01.13-.01.19-.02,3.57-.45,7.06-.22,10.14,1.01,13.4-8.48,26.81-16.98,40.21-25.46,2.67,1.61,5.23,3.45,7.68,5.5-2,2.06-4.05,4.33-6.12,6.8-1.03,6.68-2.9,24.92,6.67,44.95,9.58,20.04,24.98,30.02,30.82,33.42,2.09-.97,4.18-1.95,6.26-2.94-.01,2.23-.15,4.3-.43,6.15-8.05,6.37-16.1,12.75-24.15,19.12-3.85,3.04-7.71,6.09-11.56,9.14-.41,3.74-.65,7.09-.78,10.17-.54,12.5.66,20.74-1.15,34.18-3.55,15.8-27.56,31.89-72.41,65.84l.15.24.37.56,1.87,2.84.67,1.03,1.11,1.68c.16.26.33.52.52.79,6.39,9.72,16.75,25.51,19.35,29.46,58.01,3.09,86.96-26.35,129.34-41.37,12.69-4.51,26.58-7.72,42.81-8.36.99.11,2.42.06,4.13-.1,8.51-.81,24.1-4.46,29.22-5.36.47.21,1.34.59,2.5,1.2-1.75,4.17-2.65,7.9-3.17,10.62-.88,10.93-.96,24.8,1.5,40.54,3.6,22.97,11.21,41.03,17.57,53.2,2.72.21,5.45.42,8.17.63Z"/>
          <g>
            <path class="cls-11" d="M1529.1,787.73c-5.92,7.57-11.84,15.13-17.76,22.68,0,0-2.85,3.19-6.96,7.41-.08.06-.15.14-.22.22-3.13,3.19-6.96,6.95-10.81,10.33-1.22,1.07-2.48,2.1-3.78,3.09-.14.11-.28.22-.42.32-6.72,5.06-14.29,9.04-21.69,12.15-15.43,6.51-30.2,9.27-35.32,10.3-.2.04-.41.09-.62.13-26.22,5.35-49.11,15.37-69.4,25.65-.12.05-.23.11-.35.17-25.46,12.91-46.83,26.19-65.56,31.1-.11.02-.2.05-.3.08-8.17,2.1-15.83,2.6-23.12.77-8.14-2.05-14.73-5.47-19.55-8.68.05-.03.11-.06.16-.09,87.04-47.57,133.61-64.76,160.47-70.4,1.46-.31,3.32-.68,5.49-1.19,9.08-2.14,23.26-6.71,32.98-18.99,15.27-19.3,13.77-50.4,13.32-59.81-.09-1.75-.68-12.84-2.26-27.39-.31-2.9-.64-5.65-.96-8.27-7.96-64.23-19.3-93.18-27.25-121.68-4.04-14.46-19.58-48.7-17.9-60.93.42-3.12,1.96-6.82,3.81-9.42,2.68-1.85,11.29,1.63,12.67,4.87,3.25,7.61,6.38,15.24,9.48,23.09,18.64,47.12,36.5,102.07,74.57,205.88,2.36,6.45,4.61,12.24,6.55,17.08,1.93,4.86,3.56,8.77,4.73,11.51Z"/>
            <path class="cls-11" d="M1872.65,691.26c-22.84,13.49-46.19,27.95-69.93,43.46-16.49,10.77-32.43,21.56-47.82,32.32-1.38,2.26-3.51,6.41-4.05,12-.33,3.56.08,6.56.56,8.69-2.06,2.98-5.72,8.99-7.37,17.28-.42,2.13-.7,4.39-.8,6.81-.31,7.81,1.5,14.56,3.92,19.96h-99.4c15.01-7.77,32.74-20.17,50.08-33.14,24.41-18.27,41.92-31.83,48.12-36.85,22.4-18.16,59.33-44.37,122-77.66l.15.24.37.56,1.87,2.84.67,1.03,1.11,1.68c.16.26.33.52.52.79Z"/>
            <path class="cls-11" d="M1807.7,511.46c-20.92,17.26-41.84,34.53-62.76,51.79,3.94-16.75-14.99-37.17-.95-48.02,3.08-2.38,7.55-.13,7.43,3.76-.29,9.75-.86,24.86,3.22,24.79,2.23-.03,5.78-8.08,7.43-11.95.75-1.75,1.35-3.4,1.85-4.89.19-2.26.49-5.73.68-7.99-6.21-41.98-12.06-81.58-12.3-83.26-4.95,2.53-12.16,6.93-19.13,14.23-11.88,12.43-15.91,25.78-17.58,31.55-3.03,10.48-3.51,20.1-3.04,27.83,4.62,12.56,9.42,30.14,10.26,51.46.45,11.52-.35,21.83-1.62,30.56,31.66-24.46,63.31-48.92,94.97-73.38-2.77-2.05-5.59-4.22-8.45-6.48Z"/>
            <path class="cls-11" d="M1599.76,507.11c3.2,9.63,7.24,21.1,12.27,34.04,4.2,10.81,19.23,11.43,24.36,1.03.03-.07.07-.14.1-.2,9.67-19.57,20.05-40.55,38.7-44.39,2.37-.49,4.61-.64,6.66-.6,2.62-5.8,4.91-11.38,6.91-16.67-15.24,1.5-24.71,6.78-30.12,10.71-8.86,6.42-13.93,13.44-20.36,22.79-4.41,6.41-7.82,12.48-10.44,17.78-1.55,3.12-6.06,2.9-7.28-.36-4.47-11.92-7.72-22.12-10.01-29.84-10.95-36.96-19.99-68.77-11.73-104.74,1.17-5.08,2.54-9.63,3.91-13.58-5.43,1.46-11,2.87-16.72,4.2-.91,3.06-1.83,6.58-2.65,10.49-3.61,17.29-5.45,43.55,16.4,109.35Z"/>
            <path class="cls-11" d="M1665.61,713.03c-5.21-28.73-22.5-48.25-32.67-57.96-1.4.23-2.82.45-4.23.67-7.64-27.41-13.53-48.88-17.04-61.69,0,0-43.44-158.78-86-185.91-3.37-2.14-6.82-2.45-6.82-2.45-.87-.08-1.78-.06-2.7.03,8.6,9.39,16.46,19.4,22.19,30.91,35.34,71.04,66.31,167.64,66.31,167.64,3.72,12.39,9.07,30.59,15.09,52.9,1.76,12.93,5.41,31.64,13.8,52.89,1.61,4.06,18.9,47.31,27.99,45.13,6.3-1.52,7.27-24.56,4.08-42.16ZM1657.26,736.64c-1.25.31-3.69-5.42-5.55-10.01-4.32-10.64-10.67-27.78-18.26-53.91,15.41,17.46,20.71,33.17,22.77,43.52,1.52,7.61,2.81,19.96,1.04,20.4Z"/>
            <path class="cls-11" d="M1941.67,584.2c.17-3.08.38-6.47.64-10.26h0c-6.42-4.54-13.27-10.35-19.79-17.78-25.44-29.01-29.03-63.61-29.6-78.92-1.88-.51-4.67-1.09-8.04-1.1-.95,0-1.88.06-2.79.14.86,18.93,6.06,56.25,34.41,87.01,8.34,9.05,17.12,15.82,25.17,20.9Z"/>
            <path class="cls-11" d="M2068.9,722.51c-2.24-21.13.11-39.06,2.97-51.85l-1.2.24c-.74,0-1.54,0-2.38.01-1.27.01-2.67.04-4.13.1-1.89,5.84-3.6,12.63-4.68,20.28-2.28,16.11-.89,29.76.86,39.2-3.78,3.05-9.6,7.36-17.32,11.46-.15.09-.3.16-.45.24-11.1,5.83-19.43,7.72-19.19,8.85.14.72,3.76.98,18.57-.85,2.75-.35,5.9-.77,9.49-1.26-4.73,4.66-8.49,9.43-11.25,14.02-5.14,8.51-6.84,16.41-5.01,21.86.35,1.05.82,2.01,1.44,2.86,2.37,3.3,6.72,5.07,10.55,4.95,9.63-.3,19.41-12.62,21.75-31.44,1.15,2.86,2.42,5.78,3.8,8.76,3.39,7.27,7.05,13.86,10.79,19.81,1.44-2.96,2.6-5.81,3.54-8.48-6.31-11.75-15.29-32.01-18.14-58.75ZM2048.24,782.48c-.16.01-2.67.09-3.87-1.51-2.38-3.13,2.12-10.22,6.24-16.58,2.9-4.47,7.34-10.65,13.78-17.44-2.05,10.05-7.79,35.15-16.14,35.53Z"/>
          </g>
        </g>
        <g id="Sneakers">
          <g>
            <g>
              <path class="cls-12" d="M365.15,417.28c-.12,4.23-.47,8.86-1.23,13.78-3.69-3.32-7.44-6.81-11.21-10.45-8.69,2.39-28.84,9.17-46.4,28.06-19.44,20.89-24.11,44.12-25.44,52.88,4.85,5.17,9.59,10.22,14.25,15.16-4.25,2-7.66,3.33-9.76,4.12-10.4-7.92-20.81-15.85-31.2-23.77l-111.74,33.54c-31.09,15.9-53.32,33.23-68.56,47.02-11.71,10.6-23.32,22.76-38.21,20.68-7.24-1.01-13.38-5.14-18.35-10.07,1.2.32,2.37.62,3.49.87-4.99-14.07-5.82-25.41-5.82-32.55,0-44.2,29.77-85.12,167.6-195.6,19.24-15.43,45.24-35.95,76.73-59.83,6.68,6.13,13.54,12.91,20.45,20.41,2.47,2.69,4.85,5.35,7.13,8.01,10.03,13.47,20.05,26.94,30.08,40.4,16.07,15.78,32.14,31.56,48.2,47.33Z"/>
              <path class="cls-13" d="M14.97,556.56c0-44.21,29.77-85.12,167.59-195.61,19.24-15.43,45.24-35.94,76.74-59.82-3.54-3.25-7.03-6.32-10.44-9.21-5.42-4.59-13.31-4.78-19.01-.53-8.45,6.3-16.11,12.15-22.92,17.43-8.63,6.69-21.54,16.84-37,29.6-10.38,8.56-18.47,15.46-23.94,20.15C34.29,454.15,15.62,477.64,7.29,501.56c-3.34,9.6-12.29,35.32-3.6,63.66,1.62,5.29,3.48,9.43,4.72,11.98,2.34,3.54,5.31,7.5,8.88,11.04,1.2.32,2.37.61,3.49.87-4.98-14.07-5.81-25.42-5.82-32.54Z"/>
            </g>
            <path class="cls-13" d="M250.26,481.05c-.97-.77,2.08-12.27-5.21-18.41-5.69-4.79-7.66,4.09-6.91,8.9-1.96,2.48-4.4,8.66-6.72,8.72-4.73.11-19.65-20.59-30.21-17.4-12.63,3.81-1.04,17-.92,18.16,1.75,16.3-18.97-1.67-24.84-.43-.85.18-2.08.6-3.4,1.59-6.24,4.67-1.96,14.18-6.55,17.79-4.71,3.7-12.71-3.56-17.21.39-2.54,2.23-2.69,6.9-1.13,10.2,1.84,3.93,6.25,6.29,10.94,5.72-1.8,3.75-3.61,7.5-5.41,11.25,1.08,3.96,4.66,6.66,8.53,6.58,4.34-.09,8.12-3.65,8.45-8.28,1.77-2.03,3.48-3.1,4.59-3.67,5.83-3.02,11.37-.9,21.16-1.69.43-.03,2.88-.24,5.97-1.08,2.02-.55,3.08-.83,4.13-1.55,2.52-1.73,3.35-4.8,3.64-6.7,2.02,0,4.03,0,6.05-.01-6.17,8.63-11.34,16.25-15.42,22.43-9.64,14.59-13.19,21.12-14.3,29.96-.6,4.75-1.54,12.25,2.53,15.37,6.22,4.77,19.72-4.09,22.66-6.01,8.92-5.85,13.92-13.34,16.44-17.86-7.09,26.08-3.17,46.82,7.6,51.96,5.89,2.81,12.33.23,13.12-.1,14.65-6.11,16.89-30.93,18.45-50.82,1.35-17.2,1.39-42.99-6.22-74.62l-6.44,5.33c7.14,37.25,3.91,64.32-.23,81.85-.84,3.55-5.84,24.75-9.68,24.36-2.82-.28-4.37-12.09-4.4-21.3-.08-30.72,16.79-58.81,18.1-67.68.11-.73,1.55-3.63,2.21-7.86.12-.75,1.32-1.76,1.37-2.76,1.24-24.63-9.8-11.56-10.74-12.3ZM186.21,512.12c-3.13.32-8.04-11.21-6.24-12.57,1.45-1.1,8.97,3.12,8.6,8.44-.11,1.61-.99,3.99-2.36,4.13ZM214.2,484.31c4.72,2.31,9.45,4.62,14.17,6.93-3.22,3.98-6.43,7.97-9.65,11.95-2.57-1.47-5.13-2.94-7.7-4.41,1.06-4.82,2.12-9.65,3.18-14.47ZM236.91,515.37c-9.27,32.64-38.6,52.85-41,50.75-2.76-2.42,25.05-39.06,34.15-51.04,3.64-4.79,6.82-8.83,9.26-11.89-.39,3.36-1.09,7.52-2.42,12.18Z"/>
          </g>
          <g>
            <g>
              <path class="cls-12" d="M966.8,343.35c-3.79-.38-7.91-1.05-12.24-2.16-48.38-12.41-54.13-61.61-99.55-125.5-35.96-50.59-118.21-136.59-133.21-170.18-.86-1.93-1.66-3.83-2.38-5.7,2.73,7.96,6.58,14.06,7.35,15.24,3.09,7.14,7.92,18.03,14.24,31.2,7.12,14.86,9.77,18.55,12.06,24.82,4.69,12.82,7.86,28.22,8.98,50.38,1.64,32.62,3.27,65.24,4.91,97.86-7.34,27.1-15.77,48.07-22.25,62.44-11.69,25.94-21.82,41.02-15.04,54.57,3.49,6.98,11.04,12.71,19.58,13.57,9.95,1,20.12-4.73,26.16-14.69,15.02,14.37,35.01,30.24,60.67,43.59,7.89,4.11,15.58,7.59,22.95,10.56,23.84-24.63,53.51-50.69,89.96-74.75,6-3.96,11.94-7.69,17.82-11.24Z"/>
              <path class="cls-13" d="M855.02,215.68c45.41,63.89,51.17,113.09,99.55,125.5,4.33,1.11,8.45,1.78,12.24,2.16,4.2-2.54,8.39-5.01,12.52-7.35,2.59-1.55,6.55-4.29,10.02-8.53-.21-.01-.42-.02-.62-.03-6.24.87-15.19,1.19-24.88-2.1-3.46-1.18-12.82-4.78-22.35-14.89-25.41-26.95-64.53-113.27-104.78-161.27-28.98-34.56-101.95-103.92-109.89-124.92-4.04-10.69-1.64-19.62-1.64-19.62-2.26,2.03-3.86,4.13-5.02,6.12-5.39,9.22-3.75,20.27-.74,29.06.72,1.87,1.52,3.77,2.38,5.7,15,33.59,97.25,119.59,133.21,170.18Z"/>
              <path class="cls-2" d="M726.82,24.25c7.95,21,80.91,90.36,109.89,124.92,40.25,48,79.37,134.32,104.78,161.27,9.53,10.11,18.89,13.72,22.35,14.89,9.68,3.29,18.64,2.97,24.88,2.1.2.01.41.02.62.03,1.77-2.17,3.42-4.72,4.67-7.72,3.75-8.97,2.15-17.4,1.42-21.02-9.68-47.75-62.39-109.16-62.39-109.16-62.08-72.42-42.05-88.85-99.72-142.85C779.95-3.24,749.06-2.05,734.53,1.46c-4.03.98-7.24,2.24-9.35,3.16h0s-2.41,8.93,1.64,19.62Z"/>
            </g>
            <g>
              <path class="cls-13" d="M779.67,222.47c7.1-8.01-10.18-24.97-8.39-32.94.25-1.1,6.02-.26,8.65-3.72,1.73-2.28,1.87-5.7.75-8.2-1.22-2.73-3.85-3.77-9.1-5.85-4.22-1.67-7.06-2.75-9.49-1.43-1.22.66-2.24,1.87-3,3.97-3.88,10.7,7.65,20.38,4.01,32.6-1.23,4.11-4.09,8.23-3.88,15.63.05,1.68.24,3.04.39,3.91-6.18-4.8-17.1-11.37-31.01-18.72-16.04-8.48-70.26-28.66-58.43,7.52,7.36,22.5,37.15,32.61,56.09,34.59,11.85,1.24,21.69-.36,27.95-1.83,1.73,3.34,3.85,5.42,5.25,6.59,2.02,1.69,5.14,4.33,8.15,3.51,2-.54,2.85-2.46,3.68-2.38.92.09,8.48,17.5,13.24,6.01,5.51-13.3-12.27-20.08-11.84-35.38.17-6.02,4.14-.65,6.99-3.86ZM712.68,234.2c-16.5-4.52-30.65-19.11-28.64-23.06.11-.22.57-.86,2.54-1.25,14.64-2.87,43.46,13.2,55.17,22.65-6.76,2.42-17.41,4.86-29.07,1.66Z"/>
              <path class="cls-13" d="M856.66,317.99c11.25-6.77,14.75-18.86,10.55-26.19-2.47-4.32-7.9-7.33-13.32-6.97-7.5.49-14.27,7.32-15.16,16.68-.6-10.68-7.79-18.08-14.85-18.21-6.47-.11-11.68,5.93-13.45,11.03-3.23,9.34,2.77,22,15.95,29.51-14.33,6.11-22.24,17.17-20.45,25.99.8,3.95,3.73,8.33,8.15,9.9,6.77,2.4,16.23-2.12,21.61-12.22,1.72,14.58,9.09,24.66,16.96,25.34,3.21.28,6.94-1,9.35-3.67,4.58-5.07,4.09-14.96-2.81-23.07,6.26,4.59,13.89,4.86,18.56,1.16,4.09-3.24,4.98-8.78,4.39-12.53-1.34-8.49-11.53-15.72-25.49-16.75ZM823.89,298.43c2.5-.15,5.14,6.02,7.68,15.03-7.16-2.73-11.11-7.69-10.37-11.57.28-1.43,1.32-3.38,2.69-3.46ZM817.99,346.99c-1.45-2.79,7.18-10.16,15.53-16.49-.9,2.09-8.05,18.42-13.86,17.46-.25-.04-1.27-.21-1.67-.97ZM846.96,307.59c.9-5.61,4.51-11.89,7.38-11.53.79.1,1.46.7,1.8,1.3,1.54,2.77-2.8,7.92-5.62,11.27-1.52,1.81-2.88,3.15-3.71,3.93-.1-1.01-.2-2.8.15-4.98ZM853.51,359.85c-.8.85-2.1,1.07-3.06.9-6.83-1.18-8.2-23.39-8.43-27.73,11.76,17.14,13.76,24.41,11.49,26.83ZM847.9,325.67c6.5.13,11.38,1.58,14.42,2.74,3.72,1.43,8.76,3.36,9.21,6.9.03.24.23,2.01-.86,3.03-2.67,2.48-10.36-2.07-12.28-3.21-2.61-1.55-6.63-4.39-10.48-9.46Z"/>
            </g>
          </g>
        </g>
      </g>
      <g id="Flower-2" data-name="Flower">
        <path class="cls-1" d="M2208.07,474.68c12.44,0,31.58,2.7,28.17,13.54-2.2,7.01-13.61,9.16-24.07,9.18,10.46-.01,21.86-2.17,24.07-9.18,3.41-10.84-15.74-13.55-28.17-13.54Z"/>
        <path class="cls-13" d="M2187.26,596.84c6.16-.14,11.21.67,14.72,1.47,10.91,2.48,18.44,7.41,21.72,9.79,4.52,3.27,7.77,6.61,9.89,9.05.58.07,1.17.13,1.75.2,5.64.64,10.53,4.17,12.89,9.33,8.1,17.67,20.88,53.39,27.25,57.34,4.87,3.02,7.39-21.91,7.92-28.49.91-11.27.35-33.46-14.56-68.76-3.27-7.74-10.57-13.02-18.94-13.75-12.19-1.06-28.74.02-42.51,10.24-2.26,1.68-4.56,3.69-6.81,6.1,1.45-8.93,2.9-17.86,4.36-26.79-6.34.09-11.42-3.48-11.77-3.74-1.97,12.67-3.93,25.34-5.9,38.01Z"/>
        <path class="cls-13" d="M2173.42,741.71c-4.5-.12-7.21,3.13-7.52,3.51-.55,13.7-1.09,27.41-1.64,41.11,4.21.48,8.42.96,12.64,1.43,1.11-14.27,2.22-28.53,3.34-42.8-.39-.45-2.8-3.15-6.81-3.26Z"/>
        <path class="cls-12" d="M2283.68,492.08c8.72-4.79,12.81-8.79,12.27-12-1-5.89-17.62-9.12-49.86-9.69-5.83-3.15-22.77-11.27-42.01-6-4.69,1.28-8.69,3.13-12,5.08-6.65-1.32-52.07-9.86-66.01,9.23-1.11,1.51-4.1,5.62-3.23,10.16,1.52,7.92,14.2,13.75,32.31,14.77-20.6,11.08-30.59,26.71-27.04,36.87,2.42,6.91,10.54,9.68,12.27,10.21,14.21,4.41,32.96-6.07,46.89-26.31-5.73,14-2.81,28.04,5.9,34.43h0c.36.26,5.43,3.83,11.77,3.74,1.07-.02,2.17-.12,3.29-.38,11.6-2.65,20.8-18.58,18.93-39.43,5.33,20.25,16.63,34.33,28.14,34.75,4.87.18,9.1-2.11,9.77-2.48,11.78-6.53,12.23-22.62,12.25-24.08,4.01,1.04,28.3,7,42.34-6.44,2.24-2.14,5.71-5.62,5.6-9.99-.23-9.22-16.45-18.19-41.58-22.43ZM2236.24,488.22c-2.2,7.01-13.61,9.16-24.07,9.18-6.28,0-12.21-.75-15.62-1.7-13.1-3.63-7.65-18.6,3.29-20.49,1.79-.31,4.74-.52,8.23-.53,12.44,0,31.58,2.7,28.17,13.54Z"/>
        <path class="cls-15" d="M2236.24,488.22c3.41-10.84-15.74-13.55-28.17-13.54-3.48,0-6.44.22-8.23.53-10.94,1.89-16.39,16.85-3.29,20.49,3.41.95,9.35,1.71,15.62,1.7,10.46-.01,21.86-2.17,24.07-9.18Z"/>
      </g>
      <g id="Skin">
        <g>
          <path class="cls-4" d="M2212.94,601.9c-8.39-3.7-15.96-4.68-20.85-4.92-.41-9.21-.81-18.41-1.22-27.62-5.26-6.59-9.57-7.15-11.34-7.17-9.37-.08-19.74,14.56-22.79,37.69-1.38,1.19-3.32,3.21-4.67,6.22-3.02,6.73-.73,13.16-.14,14.68-8.12,5.54-14.87,10.32-19.89,13.92-19.91,14.3-24.55,18.75-28.36,24.89-4.29,6.91-6.04,13.54-6.84,17.76-.89,10.93-.97,24.79,1.5,40.54,3.6,22.96,11.21,41.03,17.56,53.2,27.54,2.12,55.08,4.24,82.62,6.36,1.23,0,22.02-.47,31.15-16.62,3.73-6.6,4.02-13.18,3.85-16.91,3.35-4.01,8.2-10.96,10.71-20.71,1.16-4.53,1.56-8.64,1.61-12.03,2.15-2.81,5.43-7.86,7.2-14.96,1.56-6.27,1.31-11.62.88-14.97.29-1.28.53-2.55.72-3.81,3.71-24.26-9.7-46.26-21.05-60.29-3.48-4-10.18-10.63-20.65-15.25Z"/>
          <g>
            <path class="cls-10" d="M2174.65,632.46l-32.05,12.86c-3.81,1.53-6.21,5.3-6.03,9.4.17,4.04,1.27,9.07,4.9,13.36,2.24,2.64,4.79,4.25,6.81,5.23l-9.54,6.86c-2.76,1.98-4.48,5.13-4.54,8.52-.06,3.35.64,7.64,3.64,11.66,5.86,7.85,15.19,7.61,15.97,7.58l-7.3,3.85c-3.17,1.68-5.12,5.02-5.02,8.6.12,4.22,1.23,7.21,1.92,8.78,4.39,9.9,15.8,15.73,22.49,16.09.92.05,3.36.08,6.35,1.18,3.47,1.28,5.65,3.26,6.34,3.85,6.36,5.5,22.68,11.75,23.98,9.79,1.34-2.02-9.96-17.91-27.73-23.84-9.83-3.28-19.59-2.82-23.68-10.09-.38-.67-.67-1.35-.9-2.02-1.03-2.98.57-6.22,3.54-7.27,3.59-1.27,8.09-2.47,13.34-3,2.91-.29,9.33-.71,18.84,1.23,18.45,3.77,28.48,12.32,29.37,11.07,1.02-1.43-9.57-16.3-27.03-21.53-19.37-5.8-33.62-5.66-33.62-5.66-2.9.03-8.49.24-11.31-3.34-.75-.96-1.2-2.05-1.45-3.18-.81-3.79,1.03-7.65,4.31-9.7,5.31-3.33,13.55-7.38,24.27-8.9,12.69-1.81,22.45.84,24.87,1.54,18.82,5.45,27.03,18.87,28.58,17.49,1.91-1.69-8.4-23.83-26.81-28.07-1.52-.35-3.94-.77-12.21-.47-13.37.49-24.13,2.21-31.32,3.65-1.2-.15-4.67-.74-7.33-3.64-.2-.21-.38-.43-.56-.66-3.98-5.11-1.86-12.67,4-15.44,3.17-1.5,5.95-2.65,8.21-3.52,5.89-2.28,10.38-4.01,16.72-4.86,5.17-.69,9.12-.46,12.57-.25,7.99.5,15.18,2.1,19.42,3.5,18.33,6.05,27.5,23.57,28.15,23.06.82-.63-10.31-31.29-34.01-37.16-9.51-2.36-18.02.02-37.72-4.93-4.82-1.21-8.69-2.45-11.14-3.29-2.18,1.49-4.25,2.91-6.23,4.28,3.17,1.79,6.98,3.56,11.45,4.92,7.02,2.14,13.18,2.53,17.51,2.47Z"/>
            <path class="cls-10" d="M2192.09,596.98c-.41-9.21-.81-18.41-1.22-27.62-5.26-6.59-9.57-7.15-11.34-7.17-9.37-.08-19.74,14.56-22.79,37.69,6.49-1.39,14.03-2.51,22.44-2.9,4.59-.21,8.91-.19,12.91,0Z"/>
          </g>
        </g>
        <g>
          <path class="cls-4" d="M852.19,426.48c-13.82,24.44-27.61,49.23-41.33,74.37-7.46,13.65-14.82,27.27-22.08,40.84-4.85,12.03-34.83,85.04-84.54,136.82-27.97,29.14-62.8,53.27-62.8,53.27-9.37,6.49-17.43,11.51-23.17,14.96-3.27,5.49-6.45,11.55-9.4,18.18-11.22,25.27-14.54,49.1-15.13,67.17-31.61-.04-63.22-.08-94.83-.11-8.17-.01-16.26-1.87-23.54-5.6-.05-.03-.12-.06-.17-.1-31.66-16.4-52.57-58.2-44.82-91.54,3.83-16.47,15.45-34.26,18.02-38.11,3.57-5.33,6.89-9.5,9.22-12.28-3.83-3.85-9.49-9.53-16.31-16.41-43.94-44.32-76.93-78.56-87.49-89.53-20.67-21.48-45.28-47.3-72.96-76.85,1.33-8.76,6-31.99,25.44-52.88,17.57-18.89,37.72-25.67,46.4-28.06,32.85,31.64,62.74,51.22,83.68,63.15,37.19,21.22,73.92,34.16,121.45,73.02,6.59,5.41,11.83,10,15.11,12.95,26.65-25.12,54.06-52.71,81.73-82.9,31.27-34.13,59.37-67.81,84.58-100.34,3,1.81,6.41,3.02,9.99,3.39,9.95,1,20.12-4.74,26.16-14.69,15.02,14.36,35.02,30.23,60.67,43.59,5.49,2.86,10.88,5.42,16.12,7.69Z"/>
          <g>
            <path class="cls-14" d="M529.64,585.79c-28.67,21.9-57.4,27.75-77.23,31.55-21.21,4.07-40.7,4.58-57.49,3.43,13.27,13.59,28.97,29.57,46.4,47.16,6.82,6.88,12.48,12.57,16.31,16.42,13.2-12.32,26.47-24.97,39.8-37.95,26.44-25.75,51.6-51.35,75.51-76.65-3.19-2.87-8.26-7.33-14.63-12.55-6.8,8.82-16.15,19.03-28.68,28.61Z"/>
            <path class="cls-14" d="M446.64,801.1c7.69,10.54,17.46,19.42,28.56,25.17.06.03.12.06.18.09,7.27,3.74,15.36,5.59,23.53,5.6,31.61.04,63.22.07,94.83.11.6-18.06,3.91-41.89,15.13-67.17,2.94-6.63,6.13-12.69,9.39-18.18-30.61,16.21-70.92,33.56-120.02,45.09-18.19,4.27-35.47,7.25-51.6,9.28Z"/>
          </g>
        </g>
        <g>
          <path class="cls-4" d="M2185.22,474.6c-11.96-12.16-23.91-24.32-35.87-36.48-5.39-5.48-11.83-9.82-18.94-12.77-13.73-5.68-27.45-11.37-41.18-17.05-6.26-2.59-13.15-3.23-19.78-1.83-5.59,1.18-12.24,2.62-19.66,4.32-66.28,15.15-82.82,24.93-93.11,32.53-5.45,4.03-13.51,10.67-21.99,20.77-1.02,6.68-2.9,24.93,6.67,44.95,9.58,20.04,24.98,30.03,30.82,33.43,3.01-1.41,6.01-2.82,9.02-4.23,3.89,1.35,8.38,2.63,13.42,3.59,8.52,1.62,16.1,1.85,22.18,1.58-4.11,2.58-6.59,6.56-6.2,10.45.09.9.38,2.21,1.29,3.68,3.33,2.18,8.34,5.19,14.76,8.06,23.71,10.61,59.18,15.98,68.88,1.85,3.68-5.35,3.79-13.69,3.79-14.15,4.37-.17,7.7-1.28,10.06-2.41,16.88-8.07,17.59-32.84,17.61-34.21.79-5.28,1.15-11.51.42-18.42-2.6-24.42-17.17-40.91-23.8-47.53,3.22.7,6.94,1.77,10.92,3.43,6.97,2.91,12.28,6.59,16.01,9.67,10.51,8.53,40.35,30.96,51,22.63,1.48-1.16,4.02-1.79,5.22-4.6,1.06-2.47.33-5.35-1.55-7.26Z"/>
          <g>
            <path class="cls-9" d="M2051.16,557.08c5.8,1.18,10.12-1.73,10.42-4.44.22-2-1.7-4.29-4.39-5.71-3.01.07-6.12.06-9.31-.03-11.39-.32-21.8-1.66-31.08-3.5-2.28,1.43-4.05,3.29-5.12,5.33,7.71,2.57,16.39,4.89,26,6.55,4.69.81,9.19,1.39,13.48,1.8Z"/>
            <path class="cls-9" d="M2089.77,474.36c-2.25-.9-4.63-.4-5.67.97-1.37,1.82-.66,5.53,2.61,7.22,7.62,4.95,19.01,13.74,28.81,27.95,4.33,6.27,7.49,12.36,9.82,17.8,1.51-6.08,1.65-11.03,1.66-11.62.07-.46.13-.94.19-1.42-1.56-3.17-3.37-6.45-5.51-9.77-10.75-16.73-24.09-26.34-31.91-31.13Z"/>
            <path class="cls-9" d="M2070.39,505.22c-4.52-1.42-8.12-.81-8.64.55-.49,1.3,1.6,3.87,5.17,5.8,6.15,3.33,24.61,19.39,30.86,36.19.53,1.43,1.12,3.29,1.59,5.53,2.93-.12,5.38-.66,7.39-1.34-.17-1.18-.37-2.37-.62-3.59-5.9-28.18-31.87-41.27-35.74-43.14Z"/>
          </g>
        </g>
        <g>
          <path class="cls-4" d="M1915.04,247.74c.04,4.61,0,9.12-.14,13.5-.86,29.79-5.45,54.06-9.81,71.38-9.56,38.04-18.3,72.58-49.35,96.42-7.94,6.11-27.98,21.05-56.79,20.88-22.41-.14-39.1-9.37-46.65-14.23-7.13,3.19-13.45,8.06-18.83,13.93-.01.01-.02.02-.03.04-8.55,9.33-14.74,21.22-18.17,33.02-.06.19-.11.38-.16.57-2.59,9.15-3.5,18.25-2.54,26.04,1.11,2.53,2.17,5.48,3.15,8.76-7.06,17.21-16.07,27.58-24.12,27.62-7.39.03-15.77-8.62-22.59-23.64,4.53-7.91,8.97-16.53,12.84-25.06.43-.96.85-1.91,1.27-2.85,2.09-4.71,3.99-9.37,5.63-13.82-13.57-26.08-26.02-78.86-25.53-108.31,1.04-1.74,2.08-3.48,3.12-5.21,7.65-5.64,15.76-12.7,23.58-21.49,12.58-14.13,20.42-28.15,25.24-38.71-3.24-.86-5.51-2.26-7.04-3.45-10.16-7.98-7.89-23.67-7.68-24.96,22.4,10.83,36.94,9.31,46.08,5.95,30.21-11.16,42.11-57.75,74.45-83.44,4.28-3.41,11.87-8.78,22.6-10.65,4.95-.86,16.04-2.8,25.07,2.85,12.89,8.06,8.5,23.34,21.23,35.18,7.74,7.2,17.66,9.25,24.93,9.84.13,3.33.2,6.62.24,9.84Z"/>
          <path class="cls-7" d="M1722.6,390.45c-.85,9.11-.96,21.99,2.55,36.76,2.14,9.04,5.13,16.66,8.02,22.71,2.72-2.92,6.32-6.26,10.93-9.42,2.89-1.99,5.67-3.56,8.2-4.81-4.02-2.78-8.58-6.54-13-11.55-10.98-12.47-15.04-25.94-16.7-33.69Z"/>
        </g>
      </g>
      <g id="Face">
        <path class="cls-3" d="M1793.63,349.89c-8.2.07-13.59,3.03-13.78,5.9-.19,2.97,5.21,5.65,5.95,6,.58,2.41,5.23,21.88,24.18,29.9,13.45,5.69,25.81,1.77,32.76-1.09,1.35-.55.97-2.55-.49-2.58-6.45-.1-16.32-.52-31.57-10.9-12.27-8.36-15.22-21.58-17.06-27.24Z"/>
        <path class="cls-3" d="M1863.64,287.02c-2.64-.84-6.11,1.15-6.63,4.7-.6,3.76-2.85,13.03-3.17,17.16-1.16,14.95,1.83,23.13,4.01,34.66.79,4.2-1.76,8.29-5.9,9.36-1.01.26-2.08.49-3.22.67-4.39.69-8.27.43-11.29-.09-1.54-.26-2.58,1.54-1.55,2.72.97,1.11,1.94,1.94,2.81,2.55,4.68,3.31,11.15,3.97,18.12,2.23,8.58-2.14,13.51-11.09,11.29-19.66-2.79-10.73-6.24-18.28-4.68-32.54.39-3.52,2.71-12.19,3.39-15.36.67-2.91-.93-5.68-3.19-6.4Z"/>
        <path class="cls-8" d="M1806.94,248.92c7.1.51,14.3-.46,21.44.17,5.61.5,17.53,7.92,22.41-.57,10.12-17.62-43.51-16.6-49.19-2.81-1.82,4.42,2.97,3.04,5.34,3.21Z"/>
        <path class="cls-8" d="M1915.04,247.74c.04,4.61,0,9.12-.14,13.5-2.36-.59-4.74-1.11-7.14-1.45-5.58-.79-18.87,3.73-21.69-5.63-3.54-11.74,13.99-11.61,28.98-6.42Z"/>
        <path class="cls-3" d="M1799.33,296.28c-.82,4.52-.77,13.38,4.8,16.28,3.6,1.88,7.6.27,8.11.05,6.91-2.91,7.93-12.79,8.19-15.37.31-3.07.01-5.62-.28-7.27,1.38-.3,3.76-1.02,6.15-2.86,3.11-2.39,4.48-5.33,5.02-6.7-1.3.3-3.21.69-5.55,1-9.43,1.24-11.96-.75-16.16.7-6.01,2.08-9.35,9.1-10.27,14.16Z"/>
        <path class="cls-3" d="M1875,306.45c-.77,4.25-.72,12.58,4.51,15.31,3.39,1.77,7.15.25,7.63.05,6.5-2.74,7.46-12.03,7.7-14.46.3-2.88.01-5.28-.27-6.83,1.3-.29,3.54-.96,5.78-2.69,2.92-2.25,4.22-5.01,4.72-6.3-1.22.28-3.02.65-5.22.94-8.87,1.17-11.25-.71-15.2.66-5.65,1.95-8.8,8.56-9.66,13.31Z"/>
      </g>
    </g>
  </g>
</svg>